<svg height="512pt" viewBox="0 -32 512 511" width="512pt" xmlns="http://www.w3.org/2000/svg"><path d="m256 .5-20.015625 147.585938 276.015625-20.015626v-127.570312zm0 0" fill="#b4d2d7"/><path d="m256 .5h-256v127.570312l256 20.015626zm0 0" fill="#e1ebf0"/><path d="m47.839844 49.285156h31.890625v30h-31.890625zm0 0" fill="#ff3939"/><path d="m111.625 49.285156h31.894531v30h-31.894531zm0 0" fill="#ff9f22"/><path d="m175.410156 49.285156h31.894532v30h-31.894532zm0 0" fill="#15ccc2"/><path d="m512 219.296875v-91.226563h-256l-20.015625 77.160157 20.015625 91.804687zm0 0" fill="#efe2dd"/><path d="m256 128.070312h-256v223.25l233.539062 20.015626 22.460938-74.300782zm0 0" fill="#fff5f5"/><path d="m467.816406 216.730469c-81.527344-4.734375-157.542968 26.367187-211.816406 80.304687l-20.015625 82.351563 20.015625 67.609375h256v-227.699219zm0 0" fill="#15ccc2"/><path d="m0 446.996094h178.183594l64.621094-95.675782h-242.804688zm0 0" fill="#15ccc2"/><path d="m178.183594 446.996094h77.816406v-149.960938c-39.703125 39.460938-67.757812 91.140625-77.816406 149.960938zm0 0" fill="#6fe8d5"/><path d="m159.464844 239.695312c0 26.421876-21.421875 47.839844-47.839844 47.839844-26.421875 0-47.839844-21.417968-47.839844-47.839844 0-26.421874 21.417969-47.839843 47.839844-47.839843 26.417969 0 47.839844 21.417969 47.839844 47.839843zm0 0" fill="#ffda44"/></svg>